<svg width="40" height="39" viewBox="0 0 40 39" fill="none" xmlns="http://www.w3.org/2000/svg">
<g clip-path="url(#clip0_16_132)">
<path d="M20 0C14.5725 0 13.89 0.024375 11.7575 0.117C9.625 0.2145 8.1725 0.541125 6.9 1.02375C5.56461 1.51204 4.35535 2.28003 3.3575 3.27356C2.3385 4.24647 1.55081 5.4255 1.05 6.7275C0.555 7.96575 0.2175 9.38437 0.12 11.4562C0.025 13.5403 0 14.2033 0 19.5024C0 24.7967 0.025 25.4597 0.12 27.5389C0.22 29.6156 0.555 31.0318 1.05 32.2725C1.5625 33.5546 2.245 34.6418 3.3575 35.7264C4.4675 36.8111 5.5825 37.479 6.8975 37.9762C8.1725 38.4589 9.6225 38.7879 11.7525 38.883C13.8875 38.9756 14.5675 39 20 39C25.4325 39 26.11 38.9756 28.245 38.883C30.3725 38.7855 31.83 38.4589 33.1025 37.9762C34.437 37.4876 35.6454 36.7197 36.6425 35.7264C37.755 34.6418 38.4375 33.5546 38.95 32.2725C39.4425 31.0318 39.78 29.6156 39.88 27.5389C39.975 25.4597 40 24.7967 40 19.5C40 14.2033 39.975 13.5403 39.88 11.4587C39.78 9.38438 39.4425 7.96575 38.95 6.7275C38.4492 5.4255 37.6615 4.24647 36.6425 3.27356C35.6446 2.28003 34.4354 1.51204 33.1 1.02375C31.825 0.541125 30.37 0.212063 28.2425 0.117C26.1075 0.024375 25.43 0 19.995 0H20ZM18.2075 3.51488H20.0025C25.3425 3.51488 25.975 3.53194 28.0825 3.627C30.0325 3.71231 31.0925 4.03163 31.7975 4.29731C32.73 4.65075 33.3975 5.07487 34.0975 5.75737C34.7975 6.43988 35.23 7.08825 35.5925 7.99988C35.8675 8.68481 36.1925 9.71831 36.28 11.6196C36.3775 13.6744 36.3975 14.2911 36.3975 19.4951C36.3975 24.6992 36.3775 25.3183 36.28 27.3731C36.1925 29.2744 35.865 30.3054 35.5925 30.9928C35.2696 31.8384 34.7581 32.6035 34.095 33.2329C33.395 33.9154 32.73 34.3371 31.795 34.6905C31.095 34.9586 30.035 35.2755 28.0825 35.3633C25.975 35.4559 25.3425 35.4778 20.0025 35.4778C14.6625 35.4778 14.0275 35.4559 11.92 35.3633C9.97 35.2755 8.9125 34.9586 8.2075 34.6905C7.33958 34.3767 6.554 33.8788 5.9075 33.2329C5.24318 32.603 4.73082 31.837 4.4075 30.9904C4.135 30.3054 3.8075 29.2719 3.72 27.3707C3.625 25.3159 3.605 24.6992 3.605 19.4902C3.605 14.2813 3.625 13.6695 3.72 11.6147C3.81 9.71344 4.135 8.67994 4.41 7.99256C4.7725 7.08337 5.2075 6.43256 5.9075 5.75006C6.6075 5.06756 7.2725 4.64587 8.2075 4.29244C8.9125 4.02431 9.97 3.70744 11.92 3.61969C13.765 3.53681 14.48 3.51244 18.2075 3.51V3.51488ZM30.6775 6.75187C30.3623 6.75187 30.0502 6.8124 29.7591 6.93C29.4679 7.04759 29.2033 7.21996 28.9804 7.43725C28.7576 7.65453 28.5808 7.91249 28.4602 8.1964C28.3396 8.4803 28.2775 8.78458 28.2775 9.09188C28.2775 9.39917 28.3396 9.70345 28.4602 9.98735C28.5808 10.2713 28.7576 10.5292 28.9804 10.7465C29.2033 10.9638 29.4679 11.1362 29.7591 11.2538C30.0502 11.3713 30.3623 11.4319 30.6775 11.4319C31.314 11.4319 31.9245 11.1853 32.3746 10.7465C32.8246 10.3077 33.0775 9.71248 33.0775 9.09188C33.0775 8.47127 32.8246 7.87608 32.3746 7.43725C31.9245 6.99841 31.314 6.75187 30.6775 6.75187ZM20.0025 9.48675C18.6402 9.46603 17.2872 9.70975 16.0224 10.2037C14.7577 10.6977 13.6063 11.432 12.6354 12.364C11.6645 13.296 10.8934 14.407 10.3671 15.6323C9.8408 16.8576 9.56975 18.1728 9.56975 19.5012C9.56975 20.8296 9.8408 22.1448 10.3671 23.3701C10.8934 24.5954 11.6645 25.7064 12.6354 26.6384C13.6063 27.5704 14.7577 28.3047 16.0224 28.7987C17.2872 29.2927 18.6402 29.5364 20.0025 29.5157C22.6989 29.4747 25.2705 28.4015 27.1624 26.5279C29.0544 24.6543 30.1148 22.1305 30.1147 19.5012C30.1148 16.872 29.0544 14.3481 27.1624 12.4745C25.2705 10.6009 22.6989 9.52777 20.0025 9.48675ZM20.0025 12.9992C20.8781 12.9992 21.7451 13.1673 22.554 13.494C23.363 13.8207 24.098 14.2996 24.7171 14.9032C25.3363 15.5069 25.8274 16.2235 26.1625 17.0122C26.4975 17.801 26.67 18.6463 26.67 19.5C26.67 20.3537 26.4975 21.199 26.1625 21.9878C25.8274 22.7765 25.3363 23.4931 24.7171 24.0968C24.098 24.7004 23.363 25.1793 22.554 25.506C21.7451 25.8327 20.8781 26.0008 20.0025 26.0008C18.2342 26.0008 16.5383 25.3159 15.2879 24.0968C14.0375 22.8776 13.335 21.2241 13.335 19.5C13.335 17.7759 14.0375 16.1224 15.2879 14.9032C16.5383 13.6841 18.2342 12.9992 20.0025 12.9992Z" fill="#F5F2EE"/>
</g>
<defs>
<clipPath id="clip0_16_132">
<rect width="40" height="39" fill="white"/>
</clipPath>
</defs>
</svg>
