<svg width="27" height="28" viewBox="0 0 27 28" fill="none" xmlns="http://www.w3.org/2000/svg">
<path d="M19.811 0.221107L24.9649 0.050154C25.7301 0.0247728 26.3847 0.595326 26.4639 1.3567C26.5301 1.99273 26.5698 2.51203 26.5831 2.91475C27.0103 15.7944 16.9158 26.5816 4.03616 27.0088C3.63346 27.0221 3.1126 27.0169 2.47363 26.993C1.70865 26.9643 1.09601 26.3491 1.07063 25.584L0.899669 20.4298C0.887259 20.0557 1.16024 19.733 1.53122 19.6831C1.86427 19.6383 2.13152 19.598 2.33298 19.5623C4.38225 19.1992 6.32213 18.5319 8.10624 17.6102C8.39261 17.4622 8.74386 17.5408 8.9398 17.7968L11.2913 20.868C15.7014 18.8045 19.1699 15.098 20.9367 10.5608L17.7219 8.42201C17.4504 8.24119 17.3475 7.89178 17.4775 7.59272C18.2783 5.75158 18.8148 3.77197 19.0407 1.70346C19.0629 1.50136 19.0851 1.23375 19.1076 0.900756C19.1328 0.527256 19.4368 0.233517 19.811 0.221107Z" fill="#3E3A2E"/>
</svg>
