<?xml version="1.0" encoding="UTF-8"?>
<svg id="Layer_1" data-name="Layer 1" xmlns="http://www.w3.org/2000/svg" xmlns:xlink="http://www.w3.org/1999/xlink" viewBox="0 0 219.03 117">
  <defs>
    <style>
      .cls-1 {
        font-family: BaskOldFace, 'Baskerville Old Face';
        font-size: 14px;
      }

      .cls-2 {
        fill: #04435d;
      }

      .cls-3 {
        fill: url(#linear-gradient);
      }
    </style>
    <linearGradient id="linear-gradient" x1="45.6" y1="12.7" x2="45.6" y2="86.73" gradientUnits="userSpaceOnUse">
      <stop offset="0" stop-color="#04435d"/>
      <stop offset=".27" stop-color="#03415a"/>
      <stop offset=".42" stop-color="#033b52"/>
      <stop offset=".53" stop-color="#023145"/>
      <stop offset=".63" stop-color="#022432"/>
      <stop offset=".72" stop-color="#011219"/>
      <stop offset=".79" stop-color="#000"/>
    </linearGradient>
  </defs>
  <text class="cls-1" transform="translate(82.31 86.05)"><tspan x="0" y="0">OYAL WEDDING</tspan></text>
  <path class="cls-2" d="M68.14,55.57s-2.1-13.84,15.02-13.75c0,0-2.3,17.43-14.49,17.46,0,0,18.63,3.96,21.53-15.87,.32-2.16,1.11-4.22,2.45-5.94,.33-.43,.72-.87,1.15-1.32,0,0-28.24-5.38-25.67,19.42Z"/>
  <path class="cls-3" d="M33.41,39.58c-1.78-3.09-2.8-6.58-3.08-10.14-.02-.2-.02-.36-.03-.46-.03-4.5-1.62-8.87-4.05-12.66-.75-1.17-1.63-2.39-2.67-3.63,12.94,0,62.46,3.69,36.71,40.75,0,0,10.24-25.19-14.57-30.63-3.25-.71-5.66-.22-8.9-.96l.28,5.38c.35,4.49,1,9.21,1.69,12.84,.76,3.99,2.75,7.7,5.89,10.28,1.56,1.29,3.52,2.43,5.94,3.08,0,0-9.9-1.18-17.21-13.86Z"/>
  <path d="M55.73,57.68c11.88,3.41,23.88,13.37,27.01,28.09,0,0,0,0,0,0l-10.7,.02s0,0,0,0c.02-.29,1.26-12.49-26.43-26.53-10.71-5.43-15.63-18.19-16.15-25.9,0,0,.03,.09,.08,.26,2.53,8.39,8.07,15.61,15.65,20,3.09,1.8,6.8,2.97,10.56,4.06Z"/>
  <path d="M32.14,46.25l.11,39.55h9.89l-1.67-28.02s-5.96-4.71-8.32-11.53Z"/>
</svg>