<svg width="172" height="172" viewBox="0 0 172 172" fill="none" xmlns="http://www.w3.org/2000/svg">
<path d="M35.8333 150.5H136.167C144.083 150.5 150.5 144.083 150.5 136.167V35.8333C150.5 27.9173 144.083 21.5 136.167 21.5H35.8333C27.9173 21.5 21.5 27.9173 21.5 35.8333V136.167C21.5 144.083 27.9173 150.5 35.8333 150.5ZM35.8333 150.5L114.667 71.6667L150.5 107.5M71.6667 60.9167C71.6667 66.8537 66.8537 71.6667 60.9167 71.6667C54.9796 71.6667 50.1667 66.8537 50.1667 60.9167C50.1667 54.9796 54.9796 50.1667 60.9167 50.1667C66.8537 50.1667 71.6667 54.9796 71.6667 60.9167Z" stroke="black" stroke-width="5" stroke-linecap="round" stroke-linejoin="round"/>
</svg>
